<mxfile host="Electron" modified="2023-11-09T09:54:36.348Z" agent="Mozilla/5.0 (Windows NT 10.0; Win64; x64) AppleWebKit/537.36 (KHTML, like Gecko) draw.io/21.2.8 Chrome/112.0.5615.165 Electron/24.2.0 Safari/537.36" etag="Q8qp94BoZufRZWhubudf" version="21.2.8" type="device">
  <diagram id="Cc56VYgnydyTXUygLho-" name="Seite-1">
    <mxGraphModel dx="1434" dy="844" grid="1" gridSize="10" guides="1" tooltips="1" connect="1" arrows="1" fold="1" page="1" pageScale="1" pageWidth="827" pageHeight="1169" math="0" shadow="0">
      <root>
        <mxCell id="0" />
        <mxCell id="1" parent="0" />
        <mxCell id="TD258zFOj-RLM4iJq_1T-86" value="FrontendReact User1" style="swimlane;fontSize=8;strokeColor=#000000;strokeWidth=1;fillColor=default;" parent="1" vertex="1">
          <mxGeometry x="510" y="70" width="270" height="240" as="geometry" />
        </mxCell>
        <mxCell id="TD258zFOj-RLM4iJq_1T-89" value="Drawflow?" style="rounded=0;whiteSpace=wrap;html=1;fontSize=12;strokeColor=#000000;strokeWidth=1;fillColor=default;" parent="TD258zFOj-RLM4iJq_1T-86" vertex="1">
          <mxGeometry x="40" y="60" width="70" height="50" as="geometry" />
        </mxCell>
        <mxCell id="TD258zFOj-RLM4iJq_1T-92" value="Image Upload" style="rounded=0;whiteSpace=wrap;html=1;fontSize=12;strokeColor=#000000;strokeWidth=1;fillColor=default;" parent="TD258zFOj-RLM4iJq_1T-86" vertex="1">
          <mxGeometry x="140" y="60" width="70" height="50" as="geometry" />
        </mxCell>
        <mxCell id="TD258zFOj-RLM4iJq_1T-93" value="WS Communicator to understand small changes" style="rounded=0;whiteSpace=wrap;html=1;fontSize=12;strokeColor=#000000;strokeWidth=1;fillColor=default;" parent="TD258zFOj-RLM4iJq_1T-86" vertex="1">
          <mxGeometry x="40" y="120" width="130" height="50" as="geometry" />
        </mxCell>
        <mxCell id="TD258zFOj-RLM4iJq_1T-101" style="edgeStyle=orthogonalEdgeStyle;rounded=0;orthogonalLoop=1;jettySize=auto;html=1;entryX=0;entryY=0.5;entryDx=0;entryDy=0;fontSize=12;" parent="TD258zFOj-RLM4iJq_1T-86" source="TD258zFOj-RLM4iJq_1T-99" target="TD258zFOj-RLM4iJq_1T-100" edge="1">
          <mxGeometry relative="1" as="geometry" />
        </mxCell>
        <mxCell id="TD258zFOj-RLM4iJq_1T-99" value="Downloader" style="rounded=0;whiteSpace=wrap;html=1;fontSize=12;strokeColor=#000000;strokeWidth=1;fillColor=default;" parent="TD258zFOj-RLM4iJq_1T-86" vertex="1">
          <mxGeometry x="40" y="180" width="70" height="50" as="geometry" />
        </mxCell>
        <mxCell id="TD258zFOj-RLM4iJq_1T-100" value="LocalStorage for Image and UserID" style="rounded=0;whiteSpace=wrap;html=1;fontSize=12;strokeColor=#000000;strokeWidth=1;fillColor=default;" parent="TD258zFOj-RLM4iJq_1T-86" vertex="1">
          <mxGeometry x="150" y="180" width="70" height="50" as="geometry" />
        </mxCell>
        <mxCell id="TD258zFOj-RLM4iJq_1T-133" value="Cards sets stored in WebAPP" style="rounded=0;whiteSpace=wrap;html=1;fontSize=10;strokeColor=#000000;strokeWidth=1;fillColor=default;" parent="TD258zFOj-RLM4iJq_1T-86" vertex="1">
          <mxGeometry x="180" y="120" width="70" height="50" as="geometry" />
        </mxCell>
        <mxCell id="TD258zFOj-RLM4iJq_1T-87" value="FrontendReact User 2" style="swimlane;fontSize=8;strokeColor=#000000;strokeWidth=1;fillColor=default;" parent="1" vertex="1">
          <mxGeometry x="460" y="345" width="260" height="240" as="geometry" />
        </mxCell>
        <mxCell id="TD258zFOj-RLM4iJq_1T-88" value="Server" style="rounded=0;whiteSpace=wrap;html=1;fontSize=12;strokeColor=#000000;strokeWidth=1;fillColor=default;verticalAlign=top;" parent="1" vertex="1">
          <mxGeometry x="20" y="100" width="240" height="610" as="geometry" />
        </mxCell>
        <mxCell id="TD258zFOj-RLM4iJq_1T-94" value="NodeJS?" style="rounded=0;whiteSpace=wrap;html=1;fontSize=12;strokeColor=#000000;strokeWidth=1;fillColor=default;verticalAlign=top;" parent="1" vertex="1">
          <mxGeometry x="50" y="180" width="180" height="490" as="geometry" />
        </mxCell>
        <mxCell id="TD258zFOj-RLM4iJq_1T-95" value="JSON File Storage" style="rounded=0;whiteSpace=wrap;html=1;fontSize=12;strokeColor=#000000;strokeWidth=1;fillColor=default;" parent="1" vertex="1">
          <mxGeometry x="60" y="380" width="60" height="55" as="geometry" />
        </mxCell>
        <mxCell id="TD258zFOj-RLM4iJq_1T-96" value="Image Storage" style="rounded=0;whiteSpace=wrap;html=1;fontSize=12;strokeColor=#000000;strokeWidth=1;fillColor=default;" parent="1" vertex="1">
          <mxGeometry x="150" y="380" width="60" height="55" as="geometry" />
        </mxCell>
        <mxCell id="TD258zFOj-RLM4iJq_1T-106" style="edgeStyle=orthogonalEdgeStyle;rounded=0;orthogonalLoop=1;jettySize=auto;html=1;entryX=0.25;entryY=0;entryDx=0;entryDy=0;fontSize=12;" parent="1" source="TD258zFOj-RLM4iJq_1T-97" target="TD258zFOj-RLM4iJq_1T-95" edge="1">
          <mxGeometry relative="1" as="geometry">
            <Array as="points">
              <mxPoint x="75" y="300" />
              <mxPoint x="75" y="300" />
            </Array>
          </mxGeometry>
        </mxCell>
        <mxCell id="TD258zFOj-RLM4iJq_1T-97" value="WS for small changes" style="rounded=0;whiteSpace=wrap;html=1;fontSize=12;strokeColor=#000000;strokeWidth=1;fillColor=default;" parent="1" vertex="1">
          <mxGeometry x="60" y="210" width="120" height="60" as="geometry" />
        </mxCell>
        <mxCell id="TD258zFOj-RLM4iJq_1T-104" style="edgeStyle=orthogonalEdgeStyle;rounded=0;orthogonalLoop=1;jettySize=auto;html=1;fontSize=12;" parent="1" source="TD258zFOj-RLM4iJq_1T-98" target="TD258zFOj-RLM4iJq_1T-96" edge="1">
          <mxGeometry relative="1" as="geometry" />
        </mxCell>
        <mxCell id="TD258zFOj-RLM4iJq_1T-105" style="edgeStyle=orthogonalEdgeStyle;rounded=0;orthogonalLoop=1;jettySize=auto;html=1;entryX=0.75;entryY=0;entryDx=0;entryDy=0;fontSize=12;" parent="1" source="TD258zFOj-RLM4iJq_1T-98" target="TD258zFOj-RLM4iJq_1T-95" edge="1">
          <mxGeometry relative="1" as="geometry">
            <Array as="points">
              <mxPoint x="140" y="365" />
              <mxPoint x="105" y="365" />
            </Array>
          </mxGeometry>
        </mxCell>
        <mxCell id="TD258zFOj-RLM4iJq_1T-98" value="JSOn Download for Start or actualisation" style="rounded=0;whiteSpace=wrap;html=1;fontSize=12;strokeColor=#000000;strokeWidth=1;fillColor=default;" parent="1" vertex="1">
          <mxGeometry x="100" y="285" width="120" height="60" as="geometry" />
        </mxCell>
        <mxCell id="TD258zFOj-RLM4iJq_1T-102" style="edgeStyle=orthogonalEdgeStyle;rounded=0;orthogonalLoop=1;jettySize=auto;html=1;entryX=1;entryY=0.5;entryDx=0;entryDy=0;fontSize=12;" parent="1" source="TD258zFOj-RLM4iJq_1T-99" target="TD258zFOj-RLM4iJq_1T-98" edge="1">
          <mxGeometry relative="1" as="geometry" />
        </mxCell>
        <mxCell id="TD258zFOj-RLM4iJq_1T-103" style="edgeStyle=orthogonalEdgeStyle;rounded=0;orthogonalLoop=1;jettySize=auto;html=1;entryX=1;entryY=0.5;entryDx=0;entryDy=0;fontSize=12;" parent="1" source="TD258zFOj-RLM4iJq_1T-93" target="TD258zFOj-RLM4iJq_1T-97" edge="1">
          <mxGeometry relative="1" as="geometry" />
        </mxCell>
        <mxCell id="TD258zFOj-RLM4iJq_1T-107" value="MD5 hash for current JSON Store send on every WS update" style="rounded=0;whiteSpace=wrap;html=1;fontSize=10;strokeColor=#000000;strokeWidth=1;fillColor=default;" parent="1" vertex="1">
          <mxGeometry x="60" y="445" width="150" height="40" as="geometry" />
        </mxCell>
        <mxCell id="TD258zFOj-RLM4iJq_1T-108" value="Room-name and Room Passwort&lt;br style=&quot;font-size: 10px&quot;&gt;Passwort decripts JSON and Image in Memory (necessary for update of changes only, server needs to know content)&lt;br&gt;Password provided by first user in Room,&amp;nbsp;" style="rounded=0;whiteSpace=wrap;html=1;fontSize=10;strokeColor=#000000;strokeWidth=1;fillColor=default;" parent="1" vertex="1">
          <mxGeometry x="60" y="500" width="160" height="80" as="geometry" />
        </mxCell>
        <mxCell id="TD258zFOj-RLM4iJq_1T-109" value="Server becomes Client in Room, to resolve synchronisation errors" style="rounded=0;whiteSpace=wrap;html=1;fontSize=10;strokeColor=#000000;strokeWidth=1;fillColor=default;" parent="1" vertex="1">
          <mxGeometry x="60" y="585" width="160" height="35" as="geometry" />
        </mxCell>
        <mxCell id="TD258zFOj-RLM4iJq_1T-110" value="" style="endArrow=none;html=1;rounded=0;fontSize=10;" parent="1" edge="1">
          <mxGeometry width="50" height="50" relative="1" as="geometry">
            <mxPoint x="920" y="730" as="sourcePoint" />
            <mxPoint x="920" y="100" as="targetPoint" />
          </mxGeometry>
        </mxCell>
        <mxCell id="TD258zFOj-RLM4iJq_1T-111" value="" style="endArrow=none;html=1;rounded=0;fontSize=10;" parent="1" edge="1">
          <mxGeometry width="50" height="50" relative="1" as="geometry">
            <mxPoint x="1080" y="730" as="sourcePoint" />
            <mxPoint x="1080" y="100" as="targetPoint" />
          </mxGeometry>
        </mxCell>
        <mxCell id="TD258zFOj-RLM4iJq_1T-112" value="" style="endArrow=none;html=1;rounded=0;fontSize=10;" parent="1" target="TD258zFOj-RLM4iJq_1T-113" edge="1">
          <mxGeometry width="50" height="50" relative="1" as="geometry">
            <mxPoint x="1241" y="730" as="sourcePoint" />
            <mxPoint x="1241" y="100" as="targetPoint" />
          </mxGeometry>
        </mxCell>
        <mxCell id="TD258zFOj-RLM4iJq_1T-113" value="Client 2" style="text;html=1;strokeColor=none;fillColor=none;align=center;verticalAlign=middle;whiteSpace=wrap;rounded=0;fontSize=10;" parent="1" vertex="1">
          <mxGeometry x="1211" y="70" width="60" height="30" as="geometry" />
        </mxCell>
        <mxCell id="TD258zFOj-RLM4iJq_1T-114" value="Server" style="text;html=1;strokeColor=none;fillColor=none;align=center;verticalAlign=middle;whiteSpace=wrap;rounded=0;fontSize=10;" parent="1" vertex="1">
          <mxGeometry x="1050" y="70" width="60" height="30" as="geometry" />
        </mxCell>
        <mxCell id="TD258zFOj-RLM4iJq_1T-115" value="Client 1" style="text;html=1;strokeColor=none;fillColor=none;align=center;verticalAlign=middle;whiteSpace=wrap;rounded=0;fontSize=10;" parent="1" vertex="1">
          <mxGeometry x="890" y="70" width="60" height="30" as="geometry" />
        </mxCell>
        <mxCell id="TD258zFOj-RLM4iJq_1T-116" value="Open Room, set password" style="endArrow=classic;html=1;rounded=0;fontSize=10;" parent="1" edge="1">
          <mxGeometry width="50" height="50" relative="1" as="geometry">
            <mxPoint x="920" y="150" as="sourcePoint" />
            <mxPoint x="1080" y="150" as="targetPoint" />
          </mxGeometry>
        </mxCell>
        <mxCell id="TD258zFOj-RLM4iJq_1T-117" value="new Romm created, &lt;br&gt;if does not exist" style="endArrow=classic;html=1;rounded=0;fontSize=10;" parent="1" edge="1">
          <mxGeometry width="50" height="50" relative="1" as="geometry">
            <mxPoint x="1080" y="180" as="sourcePoint" />
            <mxPoint x="920" y="190" as="targetPoint" />
          </mxGeometry>
        </mxCell>
        <mxCell id="TD258zFOj-RLM4iJq_1T-118" value="upload picture&lt;br&gt;select card set" style="endArrow=classic;html=1;rounded=0;fontSize=10;" parent="1" edge="1">
          <mxGeometry width="50" height="50" relative="1" as="geometry">
            <mxPoint x="920" y="220" as="sourcePoint" />
            <mxPoint x="1080" y="230" as="targetPoint" />
          </mxGeometry>
        </mxCell>
        <mxCell id="TD258zFOj-RLM4iJq_1T-119" value="select room, wrong password" style="endArrow=classic;html=1;rounded=0;fontSize=10;" parent="1" edge="1">
          <mxGeometry width="50" height="50" relative="1" as="geometry">
            <mxPoint x="1240" y="240" as="sourcePoint" />
            <mxPoint x="1080" y="250" as="targetPoint" />
          </mxGeometry>
        </mxCell>
        <mxCell id="TD258zFOj-RLM4iJq_1T-120" value="room exists, wrong pw" style="endArrow=classic;html=1;rounded=0;fontSize=10;" parent="1" edge="1">
          <mxGeometry width="50" height="50" relative="1" as="geometry">
            <mxPoint x="1080" y="270" as="sourcePoint" />
            <mxPoint x="1240" y="270" as="targetPoint" />
          </mxGeometry>
        </mxCell>
        <mxCell id="TD258zFOj-RLM4iJq_1T-121" value="select room, right password" style="endArrow=classic;html=1;rounded=0;fontSize=10;" parent="1" edge="1">
          <mxGeometry width="50" height="50" relative="1" as="geometry">
            <mxPoint x="1240" y="300" as="sourcePoint" />
            <mxPoint x="1080" y="310" as="targetPoint" />
          </mxGeometry>
        </mxCell>
        <mxCell id="TD258zFOj-RLM4iJq_1T-122" value="set player name" style="endArrow=classic;html=1;rounded=0;fontSize=10;" parent="1" edge="1">
          <mxGeometry width="50" height="50" relative="1" as="geometry">
            <mxPoint x="920" y="280" as="sourcePoint" />
            <mxPoint x="1080" y="290" as="targetPoint" />
          </mxGeometry>
        </mxCell>
        <mxCell id="TD258zFOj-RLM4iJq_1T-123" value="provide JSON and Image" style="endArrow=classic;html=1;rounded=0;fontSize=10;" parent="1" edge="1">
          <mxGeometry width="50" height="50" relative="1" as="geometry">
            <mxPoint x="1080" y="340" as="sourcePoint" />
            <mxPoint x="1240" y="340" as="targetPoint" />
          </mxGeometry>
        </mxCell>
        <mxCell id="TD258zFOj-RLM4iJq_1T-124" value="provide JSON and Image" style="endArrow=classic;html=1;rounded=0;fontSize=10;" parent="1" edge="1">
          <mxGeometry width="50" height="50" relative="1" as="geometry">
            <mxPoint x="1080" y="260" as="sourcePoint" />
            <mxPoint x="920" y="260" as="targetPoint" />
          </mxGeometry>
        </mxCell>
        <mxCell id="TD258zFOj-RLM4iJq_1T-125" value="set number of cards to &amp;gt;0" style="endArrow=classic;html=1;rounded=0;fontSize=10;" parent="1" edge="1">
          <mxGeometry width="50" height="50" relative="1" as="geometry">
            <mxPoint x="1240" y="380" as="sourcePoint" />
            <mxPoint x="1080" y="380" as="targetPoint" />
          </mxGeometry>
        </mxCell>
        <mxCell id="TD258zFOj-RLM4iJq_1T-126" value="deal cards" style="curved=1;endArrow=classic;html=1;rounded=0;fontSize=10;" parent="1" edge="1">
          <mxGeometry x="-0.2905" y="3" width="50" height="50" relative="1" as="geometry">
            <mxPoint x="1080" y="400" as="sourcePoint" />
            <mxPoint x="1080" y="430" as="targetPoint" />
            <Array as="points">
              <mxPoint x="1010" y="410" />
            </Array>
            <mxPoint as="offset" />
          </mxGeometry>
        </mxCell>
        <mxCell id="TD258zFOj-RLM4iJq_1T-127" value="send cardset with current hash" style="endArrow=classic;html=1;rounded=0;fontSize=10;" parent="1" edge="1">
          <mxGeometry width="50" height="50" relative="1" as="geometry">
            <mxPoint x="1080" y="460" as="sourcePoint" />
            <mxPoint x="1240" y="460" as="targetPoint" />
          </mxGeometry>
        </mxCell>
        <mxCell id="TD258zFOj-RLM4iJq_1T-128" value="send cardset with current hash" style="endArrow=classic;html=1;rounded=0;fontSize=10;" parent="1" edge="1">
          <mxGeometry width="50" height="50" relative="1" as="geometry">
            <mxPoint x="1080" y="460" as="sourcePoint" />
            <mxPoint x="920" y="460" as="targetPoint" />
          </mxGeometry>
        </mxCell>
        <mxCell id="TD258zFOj-RLM4iJq_1T-130" value="lokal hash is wrong after update" style="curved=1;endArrow=classic;html=1;rounded=0;fontSize=10;" parent="1" edge="1">
          <mxGeometry x="-0.0146" y="-11" width="50" height="50" relative="1" as="geometry">
            <mxPoint x="1241" y="480" as="sourcePoint" />
            <mxPoint x="1241" y="510" as="targetPoint" />
            <Array as="points">
              <mxPoint x="1171" y="490" />
            </Array>
            <mxPoint x="-8" y="-11" as="offset" />
          </mxGeometry>
        </mxCell>
        <mxCell id="TD258zFOj-RLM4iJq_1T-131" value="request JSON update" style="endArrow=classic;html=1;rounded=0;fontSize=10;" parent="1" edge="1">
          <mxGeometry width="50" height="50" relative="1" as="geometry">
            <mxPoint x="1240" y="530" as="sourcePoint" />
            <mxPoint x="1080" y="530" as="targetPoint" />
          </mxGeometry>
        </mxCell>
        <mxCell id="TD258zFOj-RLM4iJq_1T-134" value="add finding, create new uuid, &lt;br&gt;send update to server" style="curved=1;endArrow=classic;html=1;rounded=0;fontSize=10;" parent="1" edge="1">
          <mxGeometry x="-0.0146" y="-12" width="50" height="50" relative="1" as="geometry">
            <mxPoint x="1241" y="555" as="sourcePoint" />
            <mxPoint x="1241" y="585" as="targetPoint" />
            <Array as="points">
              <mxPoint x="1171" y="565" />
            </Array>
            <mxPoint x="-8" y="-7" as="offset" />
          </mxGeometry>
        </mxCell>
        <mxCell id="TD258zFOj-RLM4iJq_1T-135" value="changed data" style="endArrow=classic;html=1;rounded=0;fontSize=10;" parent="1" edge="1">
          <mxGeometry width="50" height="50" relative="1" as="geometry">
            <mxPoint x="1240" y="600" as="sourcePoint" />
            <mxPoint x="1080" y="600" as="targetPoint" />
          </mxGeometry>
        </mxCell>
        <mxCell id="TD258zFOj-RLM4iJq_1T-136" value="changed data with hash" style="endArrow=classic;html=1;rounded=0;fontSize=10;" parent="1" edge="1">
          <mxGeometry width="50" height="50" relative="1" as="geometry">
            <mxPoint x="1080" y="620" as="sourcePoint" />
            <mxPoint x="1240" y="620" as="targetPoint" />
          </mxGeometry>
        </mxCell>
        <mxCell id="TD258zFOj-RLM4iJq_1T-137" value="changed data with hash" style="endArrow=classic;html=1;rounded=0;fontSize=10;" parent="1" edge="1">
          <mxGeometry width="50" height="50" relative="1" as="geometry">
            <mxPoint x="1080" y="620" as="sourcePoint" />
            <mxPoint x="920" y="620" as="targetPoint" />
          </mxGeometry>
        </mxCell>
        <mxCell id="TD258zFOj-RLM4iJq_1T-138" value="add finding create new uuid" style="curved=1;endArrow=classic;html=1;rounded=0;fontSize=10;" parent="1" edge="1">
          <mxGeometry x="0.0185" y="10" width="50" height="50" relative="1" as="geometry">
            <mxPoint x="920" y="650" as="sourcePoint" />
            <mxPoint x="920" y="680" as="targetPoint" />
            <Array as="points">
              <mxPoint x="1000" y="660" />
            </Array>
            <mxPoint as="offset" />
          </mxGeometry>
        </mxCell>
        <mxCell id="TD258zFOj-RLM4iJq_1T-139" value="add finding" style="endArrow=classic;html=1;rounded=0;fontSize=10;" parent="1" edge="1">
          <mxGeometry width="50" height="50" relative="1" as="geometry">
            <mxPoint x="920" y="690" as="sourcePoint" />
            <mxPoint x="1080" y="690" as="targetPoint" />
          </mxGeometry>
        </mxCell>
        <mxCell id="TD258zFOj-RLM4iJq_1T-140" value="add blocked because&lt;br&gt;&amp;nbsp;othersplayers turn" style="endArrow=classic;html=1;rounded=0;fontSize=10;" parent="1" edge="1">
          <mxGeometry width="50" height="50" relative="1" as="geometry">
            <mxPoint x="1080" y="710" as="sourcePoint" />
            <mxPoint x="920" y="710" as="targetPoint" />
          </mxGeometry>
        </mxCell>
      </root>
    </mxGraphModel>
  </diagram>
</mxfile>
